<svg width="16" height="20" viewBox="0 0 16 20" fill="none" xmlns="http://www.w3.org/2000/svg">
<path fill-rule="evenodd" clip-rule="evenodd" d="M8 0V6.5C8.00002 6.87288 8.13892 7.23239 8.38962 7.50842C8.64032 7.78445 8.98484 7.9572 9.356 7.993L9.5 8H16V18C16.0002 18.5046 15.8096 18.9906 15.4665 19.3605C15.1234 19.7305 14.6532 19.9572 14.15 19.995L14 20H2C1.49542 20.0002 1.00943 19.8096 0.639452 19.4665C0.269471 19.1234 0.0428434 18.6532 0.00500021 18.15L1.00268e-07 18V2C-0.000159579 1.49542 0.190406 1.00943 0.533497 0.639452C0.876588 0.269471 1.34684 0.0428433 1.85 0.00500011L2 0H8ZM8 9.5C7.75507 9.50003 7.51866 9.58996 7.33563 9.75272C7.15259 9.91547 7.03566 10.1397 7.007 10.383L7 10.5V12H5.5C5.24512 12.0003 4.99997 12.0979 4.81463 12.2728C4.6293 12.4478 4.51776 12.687 4.50283 12.9414C4.48789 13.1958 4.57067 13.4464 4.73426 13.6418C4.89785 13.8373 5.1299 13.9629 5.383 13.993L5.5 14H7V15.5C7.00028 15.7549 7.09788 16 7.27285 16.1854C7.44782 16.3707 7.68695 16.4822 7.94139 16.4972C8.19584 16.5121 8.44638 16.4293 8.64183 16.2657C8.83729 16.1021 8.9629 15.8701 8.993 15.617L9 15.5V14H10.5C10.7549 13.9997 11 13.9021 11.1854 13.7272C11.3707 13.5522 11.4822 13.313 11.4972 13.0586C11.5121 12.8042 11.4293 12.5536 11.2657 12.3582C11.1021 12.1627 10.8701 12.0371 10.617 12.007L10.5 12H9V10.5C9 10.2348 8.89464 9.98043 8.70711 9.79289C8.51957 9.60536 8.26522 9.5 8 9.5ZM10 0.043C10.3234 0.11165 10.6247 0.259389 10.877 0.473L11 0.586L15.414 5C15.6483 5.23411 15.8208 5.52275 15.916 5.84L15.956 6H10V0.043Z" fill="#14AE5C"/>
</svg>
