<svg width="14" height="8" viewBox="0 0 14 8" fill="none" xmlns="http://www.w3.org/2000/svg">
<path d="M6.29299 0.29293C6.46519 0.120753 6.69429 0.0173221 6.93731 0.00204087C7.18034 -0.0132403 7.42059 0.0606787 7.61299 0.20993L7.70699 0.29293L13.707 6.29293L13.79 6.38693L13.844 6.46393L13.898 6.55993L13.915 6.59593L13.942 6.66293L13.974 6.77093L13.984 6.82393L13.994 6.88393L13.998 6.94093L14 6.99993L13.998 7.05893L13.993 7.11693L13.984 7.17693L13.974 7.22893L13.942 7.33693L13.915 7.40393L13.845 7.53593L13.78 7.62593L13.707 7.70693L13.613 7.78993L13.536 7.84393L13.44 7.89793L13.404 7.91493L13.337 7.94193L13.229 7.97393L13.176 7.98393L13.116 7.99393L13.059 7.99793L13 7.99993H0.999995C0.147995 7.99993 -0.297005 7.01393 0.216995 6.37693L0.292995 6.29293L6.29299 0.29293Z" fill="#14AE5C"/>
</svg>
