<svg width="14" height="8" viewBox="0 0 14 8" fill="none" xmlns="http://www.w3.org/2000/svg">
<path d="M7.7053 7.70708C7.5331 7.87925 7.304 7.98269 7.06098 7.99797C6.81795 8.01325 6.5777 7.93933 6.3853 7.79008L6.2913 7.70708L0.291296 1.70708L0.208296 1.61308L0.154297 1.53608L0.100296 1.44008L0.0832958 1.40408L0.0562973 1.33708L0.0242958 1.22908L0.0142975 1.17608L0.00429726 1.11608L0.000297546 1.05908L-0.00170326 1.00008L0.000297546 0.941078L0.00529671 0.883078L0.0142975 0.823078L0.0242958 0.771078L0.0562973 0.663078L0.0832958 0.596077L0.153297 0.464077L0.218296 0.374077L0.291296 0.293078L0.385296 0.210078L0.462297 0.156078L0.558296 0.102078L0.594297 0.0850778L0.661297 0.0580773L0.769297 0.0260777L0.822296 0.0160775L0.882298 0.00607729L0.939297 0.00207758L0.998297 7.77245e-05L12.9983 7.77245e-05C13.8503 7.77245e-05 14.2953 0.986078 13.7813 1.62308L13.7053 1.70708L7.7053 7.70708Z" fill="#AE1414"/>
</svg>
