<svg width="147" height="47" viewBox="0 0 147 47" fill="none" xmlns="http://www.w3.org/2000/svg">
<path d="M30.0625 5.875H24.1875C22.8373 5.875 21.5004 6.14093 20.253 6.65761C19.0057 7.17429 17.8723 7.93161 16.9176 8.88631C15.9629 9.84101 15.2055 10.9744 14.6889 12.2218C14.1722 13.4692 13.9063 14.8061 13.9062 16.1562C13.9062 17.5064 14.1722 18.8433 14.6889 20.0907C15.2055 21.3381 15.9629 22.4715 16.9176 23.4262C17.8723 24.3809 19.0057 25.1382 20.253 25.6549C21.5004 26.1716 22.8373 26.4375 24.1875 26.4375H30.0625V35.25H16.8438V41.125H30.0625V47H35.9375V41.125H41.8125C44.5393 41.125 47.1543 40.0418 49.0824 38.1137C51.0105 36.1856 52.0938 33.5705 52.0938 30.8438C52.0938 28.117 51.0105 25.5019 49.0824 23.5738C47.1543 21.6457 44.5393 20.5625 41.8125 20.5625H35.9375V11.75H49.1562V5.875H35.9375V0H30.0625V5.875ZM35.9375 26.4375H41.8125C42.9811 26.4375 44.1019 26.9017 44.9282 27.7281C45.7545 28.5544 46.2188 29.6751 46.2188 30.8438C46.2188 32.0124 45.7545 33.1331 44.9282 33.9594C44.1019 34.7858 42.9811 35.25 41.8125 35.25H35.9375V26.4375ZM30.0625 20.5625H24.1875C23.6089 20.5625 23.0359 20.4485 22.5013 20.2271C21.9667 20.0057 21.481 19.6811 21.0718 19.2719C20.6627 18.8628 20.3381 18.377 20.1167 17.8424C19.8952 17.3079 19.7812 16.7349 19.7812 16.1562C19.7812 15.5776 19.8952 15.0046 20.1167 14.4701C20.3381 13.9355 20.6627 13.4497 21.0718 13.0406C21.481 12.6314 21.9667 12.3068 22.5013 12.0854C23.0359 11.864 23.6089 11.75 24.1875 11.75H30.0625V20.5625Z" fill="#14AE5C"/>
<path d="M62.3977 14.5455L65.9773 26.8523H66.1136L69.6932 14.5455H75.0455L69.2841 32H62.8068L57.0455 14.5455H62.3977ZM78.4013 32H73.2876L79.049 14.5455H85.5263L91.2876 32H86.174L82.3558 19.3523H82.2195L78.4013 32ZM77.4467 25.1136H87.0604V28.6591H77.4467V25.1136ZM103.298 14.5455H108.037V25.7273C108.037 27.0568 107.719 28.2074 107.082 29.179C106.452 30.1449 105.571 30.892 104.44 31.4205C103.31 31.9432 101.997 32.2045 100.503 32.2045C98.9972 32.2045 97.679 31.9432 96.5483 31.4205C95.4176 30.892 94.5369 30.1449 93.9062 29.179C93.2812 28.2074 92.9688 27.0568 92.9688 25.7273V14.5455H97.7074V25.3182C97.7074 25.858 97.8267 26.3409 98.0653 26.767C98.304 27.1875 98.6335 27.517 99.054 27.7557C99.4801 27.9943 99.9631 28.1136 100.503 28.1136C101.048 28.1136 101.531 27.9943 101.952 27.7557C102.372 27.517 102.702 27.1875 102.94 26.767C103.179 26.3409 103.298 25.858 103.298 25.3182V14.5455ZM110.289 32V14.5455H115.028V28.1818H122.085V32H110.289ZM121.437 18.3636V14.5455H136.607V18.3636H131.357V32H126.687V18.3636H121.437Z" fill="white"/>
</svg>
